<svg xmlns="http://www.w3.org/2000/svg" xmlns:xlink="http://www.w3.org/1999/xlink" viewBox="0 0 1228.94 268.57"><defs><linearGradient id="a" x1="209.67" y1="-21.2" x2="100.43" y2="236.1" gradientUnits="userSpaceOnUse"><stop offset="0.13" stop-color="#ffa00d"/><stop offset="1" stop-color="#e0001b"/></linearGradient><linearGradient id="b" x1="167.55" y1="-39.08" x2="58.31" y2="218.22" xlink:href="#a"/><linearGradient id="c" x1="199.23" y1="-25.63" x2="90" y2="231.68" xlink:href="#a"/></defs><polygon points="124.05 161.14 186.07 161.14 217.08 107.43 93.04 107.43 124.05 161.14" fill="url(#a)"/><polygon points="31.01 0 0 53.71 31.01 107.43 31.02 107.43 62.03 53.71 248.1 53.71 279.11 0 31.01 0" fill="url(#b)"/><polygon points="93.04 214.86 124.05 268.57 155.06 214.86 124.05 161.14 62.03 161.14 93.04 214.86" fill="url(#c)"/><path d="M353.54,78.32v25.59h84V78.32Zm26.5,56h-26.5v78.52H380V160h49.88V134.42H380Z" fill="#203a57"/><path d="M485.1,78.32V212.81h26.49V78.32Z" fill="#203a57"/><path d="M559.1,78.32v25.59h31.42v108.9H617V103.91h32.7V78.32Z" fill="#203a57"/><path d="M791.7,78.32l.53,81L698.33,73h-1.1V212.81h26.86l-.53-79.5,94.08,85h.73v-140Z" fill="#203a57"/><path d="M901.51,187.22V158.17h57.74V132.59H901.51V103.91h65.23V78.32H875V212.81H969.3V187.22Z" fill="#203a57"/><path d="M1089.16,148.21a43.83,43.83,0,0,0-10.32-7.49,102.55,102.55,0,0,0-11.61-5.2,133.73,133.73,0,0,1-12.33-5.3,35.92,35.92,0,0,1-9.68-6.67,11.72,11.72,0,0,1-3.75-8.5q0-6.94,4.93-10.41t13.53-3.48a45.8,45.8,0,0,1,14.89,2.75,100.7,100.7,0,0,1,15.62,6.94l10-20.28a92.49,92.49,0,0,0-18.18-9.14q-10.14-3.84-26.4-3.84A51.19,51.19,0,0,0,1034,83.17a36.9,36.9,0,0,0-14.71,13.61q-5.21,8.59-5.21,20.28,0,9.69,3.57,16.35a34.48,34.48,0,0,0,9.31,11.15,65.43,65.43,0,0,0,12.34,7.58q6.57,3.12,12.79,5.48a59.42,59.42,0,0,1,9.77,4.75,27.3,27.3,0,0,1,7.13,6,11.4,11.4,0,0,1,2.65,7.3q0,5.85-3.2,9.14a17.65,17.65,0,0,1-8,4.66,35.21,35.21,0,0,1-9.59,1.37,42.18,42.18,0,0,1-10.42-1.46,63.43,63.43,0,0,1-11.23-4.11,64.64,64.64,0,0,1-10.33-6.12l-11.69,20.64a80.32,80.32,0,0,0,30.42,12.88,81,81,0,0,0,15.63,1.56q15,0,25.21-5.39a38.64,38.64,0,0,0,15.53-14.16,36.12,36.12,0,0,0,5.3-19,43.06,43.06,0,0,0-2.74-16.35A33,33,0,0,0,1089.16,148.21Z" fill="#203a57"/><path d="M1217.61,148.21a43.83,43.83,0,0,0-10.32-7.49,102.55,102.55,0,0,0-11.61-5.2,133.73,133.73,0,0,1-12.33-5.3,35.92,35.92,0,0,1-9.68-6.67,11.72,11.72,0,0,1-3.75-8.5q0-6.94,4.93-10.41t13.53-3.48a45.8,45.8,0,0,1,14.89,2.75,100.7,100.7,0,0,1,15.62,6.94l10-20.28a92.49,92.49,0,0,0-18.18-9.14q-10.14-3.84-26.4-3.84a51.19,51.19,0,0,0-21.93,5.58,36.9,36.9,0,0,0-14.71,13.61q-5.21,8.59-5.21,20.28,0,9.69,3.57,16.35a34.48,34.48,0,0,0,9.31,11.15,65.43,65.43,0,0,0,12.34,7.58q6.57,3.12,12.79,5.48a59.42,59.42,0,0,1,9.77,4.75,27.3,27.3,0,0,1,7.13,6,11.4,11.4,0,0,1,2.65,7.3q0,5.85-3.2,9.14a17.65,17.65,0,0,1-8,4.66,35.21,35.21,0,0,1-9.59,1.37,42.18,42.18,0,0,1-10.42-1.46,63.43,63.43,0,0,1-11.23-4.11,64.64,64.64,0,0,1-10.33-6.12l-11.69,20.64A80.32,80.32,0,0,0,1166,212.71a81,81,0,0,0,15.63,1.56q15,0,25.21-5.39a38.64,38.64,0,0,0,15.53-14.16,36.12,36.12,0,0,0,5.3-19,43.06,43.06,0,0,0-2.74-16.35A33,33,0,0,0,1217.61,148.21Z" fill="#203a57"/></svg>